<svg width="26" height="26" viewBox="0 0 26 26" fill="none" xmlns="http://www.w3.org/2000/svg">
<g opacity="0.2">
<path d="M25.9961 5.20032V0L20.7958 0V5.20032H25.9961Z" fill="#2F2F33"/>
<path d="M20.793 10.4005V5.2002H15.5927V10.4005H20.793Z" fill="#2F2F33"/>
<path d="M20.793 20.7999V15.5996H15.5926V20.7999H20.793Z" fill="#2F2F33"/>
<path d="M25.9961 26.0001V20.7998H20.7958V26.0001H25.9961Z" fill="#2F2F33"/>
<path d="M25.9961 15.6017V10.4014H20.7958V15.6017H25.9961Z" fill="#2F2F33"/>
<path d="M15.6016 5.20032V0L10.4012 0V5.20032H15.6016Z" fill="#2F2F33"/>
<path d="M10.3945 10.4005V5.2002H5.19421V10.4005H10.3945Z" fill="#2F2F33"/>
<path d="M10.3945 20.7999V15.5996H5.19421V20.7999H10.3945Z" fill="#2F2F33"/>
<path d="M15.6016 26.0001V20.7998H10.4012V26.0001H15.6016Z" fill="#2F2F33"/>
<path d="M15.6016 15.6017V10.4014H10.4012V15.6017H15.6016Z" fill="#2F2F33"/>
<path d="M5.19922 5.20032V0L-0.00110006 0V5.20032H5.19922Z" fill="#2F2F33"/>
<path d="M5.19922 26.0001V20.7998H-0.00110006V26.0001H5.19922Z" fill="#2F2F33"/>
<path d="M5.19922 15.6017V10.4014H-0.00110149V15.6017H5.19922Z" fill="#2F2F33"/>
</g>
</svg>
