<svg width="68" height="32" viewBox="0 0 68 32" fill="none" xmlns="http://www.w3.org/2000/svg">
<g clip-path="url(#clip0_1320_1420)">
<path d="M32 6.4V0L25.6 0V6.4H32Z" fill="#1D1D1B"/>
<path d="M25.6016 12.8004V6.40039H19.2016V12.8004H25.6016Z" fill="#1D1D1B"/>
<path d="M25.6016 25.6002V19.2002H19.2016V25.6002H25.6016Z" fill="#1D1D1B"/>
<path d="M32 31.9996V25.5996H25.6V31.9996H32Z" fill="#1D1D1B"/>
<path d="M32 19.1998V12.7998H25.6V19.1998H32Z" fill="#1D1D1B"/>
<path d="M19.1992 6.4V0L12.7992 0V6.4H19.1992Z" fill="#1D1D1B"/>
<path d="M12.8008 12.8004V6.40039H6.40078V12.8004H12.8008Z" fill="#1D1D1B"/>
<path d="M12.8008 25.6002V19.2002H6.40078V25.6002H12.8008Z" fill="#1D1D1B"/>
<path d="M19.1992 31.9996V25.5996H12.7992V31.9996H19.1992Z" fill="#1D1D1B"/>
<path d="M19.1992 19.1998V12.7998H12.7992V19.1998H19.1992Z" fill="#1D1D1B"/>
<path d="M6.39844 6.4V0L-0.00156212 0V6.4H6.39844Z" fill="#1D1D1B"/>
<path d="M6.39844 31.9996V25.5996H-0.00156212V31.9996H6.39844Z" fill="#1D1D1B"/>
<path d="M6.39844 19.1998V12.7998H-0.00156212V19.1998H6.39844Z" fill="#1D1D1B"/>
</g>
<g clip-path="url(#clip1_1320_1420)">
<path d="M36 0V32H68V0H36ZM57.8938 17.4138L62.24 19.6305L60.8785 22.2982L55.6305 19.6218C54.5745 19.0836 53.3207 19.8516 53.3207 21.0356V26.9265H50.3273V21.0356C50.3273 19.8487 49.0764 19.0836 48.0175 19.6218L42.7695 22.2982L41.4109 19.6305L45.7571 17.4138C46.912 16.8262 46.912 15.1738 45.7571 14.5862L41.4109 12.3695L42.7695 9.70182L48.0175 12.3782C49.0735 12.9164 50.3273 12.1484 50.3273 10.9644V5.07345H53.3207V10.9644C53.3207 12.1513 54.5745 12.9164 55.6305 12.3782L60.8785 9.70182L62.24 12.3695L57.8938 14.5862C56.7389 15.1738 56.7389 16.8262 57.8938 17.4138Z" fill="#1D1D1B"/>
</g>
<defs>
<clipPath id="clip0_1320_1420">
<rect width="32" height="32" fill="white"/>
</clipPath>
<clipPath id="clip1_1320_1420">
<rect width="32" height="32" fill="white" transform="translate(36)"/>
</clipPath>
</defs>
</svg>
