<svg width="128" height="18" viewBox="0 0 128 18" fill="none" xmlns="http://www.w3.org/2000/svg">
<g clip-path="url(#clip0_1294_1395)">
<path d="M3.48047 13.7958V3.98728H6.03337V7.85064L5.78431 7.39024C5.86733 6.70965 6.06775 6.09912 6.38621 5.55865C6.70468 5.01818 7.1334 4.5878 7.67304 4.26753C8.21268 3.94725 8.82107 3.78711 9.49951 3.78711C10.523 3.78711 11.3085 4.11114 11.8552 4.75795C12.402 5.40539 12.6751 6.28928 12.6751 7.41025V13.7958H10.0391V8.13088C10.0391 7.39712 9.90748 6.84351 9.6448 6.46944C9.38211 6.09599 8.96701 5.90895 8.39948 5.90895C7.94286 5.90895 7.53813 6.02593 7.18529 6.25926C6.83245 6.49321 6.56263 6.83663 6.37584 7.29015C6.18904 7.74429 6.09564 8.28476 6.09564 8.91156V13.7958H3.48047Z" fill="#1D1D1B"/>
<path d="M18.5689 14.0165C17.6142 14.0165 16.7664 13.8094 16.0264 13.3959C15.2857 12.9824 14.7117 12.385 14.3037 11.6044C13.8957 10.8237 13.6914 9.90602 13.6914 8.85198C13.6914 7.79794 13.899 6.88402 14.3141 6.1096C14.7292 5.33581 15.3064 4.73841 16.0471 4.31805C16.7872 3.89768 17.6278 3.6875 18.5689 3.6875C19.51 3.6875 20.35 3.89768 21.0907 4.31805C21.8307 4.73841 22.4086 5.33893 22.8237 6.11961C23.2389 6.90029 23.4464 7.81796 23.4464 8.872C23.4464 9.92604 23.2389 10.8406 22.8237 11.6144C22.4086 12.3888 21.8307 12.9824 21.0907 13.3959C20.35 13.8094 19.5094 14.0165 18.5689 14.0165ZM18.5689 12.0748C19.0255 12.0748 19.4166 11.9547 19.7416 11.7145C20.0665 11.4743 20.3156 11.1139 20.4888 10.6335C20.662 10.1531 20.7482 9.55947 20.7482 8.85198C20.7482 8.14449 20.662 7.57087 20.4888 7.09045C20.3156 6.61004 20.0665 6.2466 19.7416 5.99951C19.4166 5.75304 19.0255 5.62919 18.5689 5.62919C18.1123 5.62919 17.7212 5.75304 17.3962 5.99951C17.0713 6.2466 16.8222 6.61004 16.649 7.09045C16.4759 7.57087 16.3896 8.15826 16.3896 8.85198C16.3896 9.54571 16.4759 10.15 16.649 10.6235C16.8222 11.0977 17.0706 11.4574 17.3962 11.7045C17.7212 11.9515 18.1123 12.0748 18.5689 12.0748Z" fill="#1D1D1B"/>
<path d="M28.9467 13.9757C27.881 13.9757 27.0716 13.7154 26.5183 13.195C25.9644 12.6745 25.6881 11.9076 25.6881 10.893V5.92868H23.4258V3.98699H25.7089V1.06445H28.1788V3.98699H30.6486V5.92868H28.1788V10.4126C28.1788 10.9868 28.3065 11.3872 28.5627 11.6136C28.8189 11.8407 29.2094 11.9539 29.7354 11.9539C30.0675 11.9539 30.4132 11.9007 30.7732 11.7938V13.6153C30.5513 13.7223 30.2783 13.8086 29.9533 13.8756C29.6277 13.9425 29.2924 13.9757 28.9467 13.9757Z" fill="#1D1D1B"/>
<path d="M31.7695 13.7959V0.00390625H34.3847V7.85072L34.0941 7.39032C34.1771 6.72286 34.3808 6.11609 34.7064 5.56874C35.0314 5.02139 35.464 4.58789 36.0036 4.26761C36.5433 3.94733 37.1452 3.78719 37.8093 3.78719C38.8192 3.78719 39.5975 4.11122 40.1443 4.75803C40.6911 5.40547 40.9641 6.28936 40.9641 7.41034V13.7959H38.3282V8.13096C38.3282 7.3972 38.1965 6.84359 37.9339 6.46952C37.6712 6.09607 37.2554 5.90903 36.6885 5.90903C36.2319 5.90903 35.8272 6.02601 35.4744 6.25934C35.1215 6.49329 34.8517 6.83671 34.6649 7.29023C34.4781 7.74438 34.3847 8.28484 34.3847 8.91164V13.7959H31.7695Z" fill="#1D1D1B"/>
<path d="M42.5195 2.6462V0.00390625H45.2177V2.6462H42.5195ZM42.561 13.7959V3.98736H45.1762V13.7959H42.561Z" fill="#1D1D1B"/>
<path d="M46.8789 13.7958V3.98728H49.4318V7.85064L49.1827 7.39024C49.2658 6.70965 49.4662 6.09912 49.7847 5.55865C50.1025 5.01818 50.5318 4.5878 51.0715 4.26753C51.6111 3.94725 52.2202 3.78711 52.898 3.78711C53.9214 3.78711 54.7069 4.11114 55.2537 4.75795C55.8005 5.40539 56.0735 6.28928 56.0735 7.41025V13.7958H53.4376V8.13088C53.4376 7.39712 53.3059 6.84351 53.0432 6.46944C52.7806 6.09599 52.3648 5.90895 51.7979 5.90895C51.3413 5.90895 50.9366 6.02593 50.5837 6.25926C50.2309 6.49321 49.9611 6.83663 49.7743 7.29015C49.5875 7.74429 49.4941 8.28476 49.4941 8.91156V13.7958H46.8789Z" fill="#1D1D1B"/>
<path d="M61.4866 17.9999C60.0058 17.9999 58.8675 17.8128 58.0723 17.4394C57.2765 17.0659 56.8789 16.5386 56.8789 15.858C56.8789 15.4176 57.0411 15.0636 57.3667 14.7971C57.6916 14.53 58.1171 14.3367 58.6431 14.2166C58.1729 14.1096 57.8025 13.9026 57.5327 13.5961C57.2629 13.2889 57.128 12.8892 57.128 12.395C57.128 11.8345 57.3355 11.3679 57.7506 10.9938C58.1657 10.6204 58.671 10.3801 59.2658 10.2732L60.0545 10.7136C59.7911 10.7805 59.57 10.8906 59.3903 11.0438C59.21 11.1977 59.1205 11.381 59.1205 11.5943C59.1205 12.1016 59.5356 12.355 60.3658 12.355H64.1225C65.0909 12.355 65.8381 12.5652 66.3641 12.9855C66.8901 13.4059 67.1528 13.9964 67.1528 14.7571C67.1528 15.798 66.6994 16.5987 65.7933 17.1592C64.8872 17.7196 63.4512 17.9999 61.4866 17.9999ZM61.7357 11.1139C60.9054 11.1139 60.1511 10.9638 59.4733 10.6635C58.7949 10.3633 58.2624 9.93288 57.8752 9.3724C57.4879 8.81191 57.294 8.1651 57.294 7.43071C57.294 6.75012 57.4808 6.12645 57.8544 5.55909C58.228 4.99234 58.7534 4.54508 59.4318 4.21792C60.1096 3.89076 60.8847 3.7275 61.7564 3.7275C62.6281 3.7275 63.4759 3.90452 64.1744 4.25796C64.8729 4.61201 65.3743 5.10244 65.6792 5.72923C65.7486 4.95544 65.9801 4.36492 66.3745 3.9577C66.7688 3.55047 67.3117 3.34028 68.0038 3.32715L68.1698 5.38894H67.7962C67.3396 5.38894 66.9556 5.51905 66.6443 5.77928C66.333 6.0395 66.1773 6.42984 66.1773 6.95029V7.43071C66.1773 8.1382 65.9937 8.76875 65.6273 9.32235C65.2602 9.87658 64.7413 10.3132 64.0706 10.6335C63.3993 10.9538 62.621 11.1139 61.7357 11.1139ZM61.6526 16.4185C62.8149 16.4185 63.6555 16.3184 64.1744 16.1183C64.6933 15.9181 64.9527 15.631 64.9527 15.2575C64.9527 14.9773 64.8451 14.7733 64.631 14.647C64.4163 14.52 64.0946 14.4568 63.6659 14.4568H60.2413C59.8398 14.4568 59.5181 14.5369 59.2761 14.697C59.0336 14.8572 58.9129 15.0773 58.9129 15.3576C58.8993 15.7179 59.1237 15.9844 59.5875 16.1583C60.0506 16.3316 60.7394 16.4185 61.6526 16.4185ZM61.7357 9.47248C62.3032 9.47248 62.763 9.30234 63.1159 8.96204C63.4687 8.62174 63.6451 8.1113 63.6451 7.43071C63.6451 6.75012 63.4687 6.21966 63.1159 5.87936C62.763 5.53907 62.3032 5.36892 61.7357 5.36892C61.1681 5.36892 60.7083 5.54282 60.3554 5.88937C60.0026 6.23655 59.8262 6.75012 59.8262 7.43071C59.8262 8.1113 60.0026 8.63863 60.3554 8.97205C60.7083 9.30546 61.1681 9.47248 61.7357 9.47248Z" fill="#1D1D1B"/>
<path d="M69.0114 8.83203H0V10.0831H69.0114V8.83203Z" fill="#1D1D1B"/>
<path d="M74.2241 14.0926C73.006 14.0926 72.0033 13.8186 71.2146 13.2719C70.4259 12.7252 69.9414 12.0046 69.7617 11.11L72.0863 10.5696C72.183 11.1301 72.432 11.5736 72.8335 11.9007C73.2343 12.2279 73.7467 12.3912 74.3694 12.3912C74.9227 12.3912 75.3378 12.2911 75.6147 12.0909C75.891 11.8907 76.0298 11.6105 76.0298 11.2502C76.0298 10.9299 75.9157 10.6828 75.6874 10.5095C75.4591 10.3362 75.0472 10.163 74.4524 9.98907L72.7297 9.52867C71.858 9.28846 71.1971 8.92815 70.7476 8.44773C70.2981 7.96731 70.073 7.36679 70.073 6.64617C70.073 6.05941 70.2423 5.53895 70.5815 5.08481C70.9201 4.63129 71.3975 4.28411 72.0137 4.04391C72.6292 3.8037 73.3316 3.68359 74.1203 3.68359C75.2132 3.68359 76.1128 3.9238 76.8185 4.40422C77.5242 4.88464 77.9737 5.55209 78.1676 6.40596L75.9053 6.86636C75.8359 6.3997 75.6387 6.02563 75.3138 5.74538C74.9882 5.46514 74.5419 5.32502 73.975 5.32502C73.4769 5.32502 73.0929 5.41822 72.8231 5.60526C72.5533 5.7923 72.4184 6.03876 72.4184 6.3459C72.4184 6.65305 72.5254 6.88325 72.7401 7.0365C72.9548 7.19039 73.3316 7.34052 73.8713 7.4869L75.843 8.02736C76.742 8.28133 77.3997 8.63164 77.8148 9.07828C78.2299 9.52554 78.4374 10.1161 78.4374 10.8498C78.4374 11.4904 78.261 12.054 77.9082 12.5413C77.5553 13.0286 77.0605 13.4089 76.4242 13.6823C75.7872 13.9556 75.0543 14.0926 74.2241 14.0926Z" fill="#1D1D1B"/>
<path d="M79.5781 17.5957V3.98386H82.1518V6.84635H81.9027C81.9857 6.25959 82.1829 5.73226 82.4942 5.26498C82.8056 4.79769 83.2239 4.43113 83.7499 4.16402C84.276 3.89754 84.8707 3.76367 85.5349 3.76367C86.3093 3.76367 86.991 3.96072 87.5793 4.35418C88.1676 4.74765 88.6203 5.32503 88.9388 6.08569C89.2572 6.84635 89.4161 7.75401 89.4161 8.80805C89.4161 9.86209 89.2462 10.7635 88.9076 11.5504C88.5684 12.338 88.0911 12.9448 87.4755 13.372C86.8594 13.7993 86.1504 14.0126 85.3481 14.0126C84.6839 14.0126 84.106 13.8724 83.615 13.5922C83.1234 13.312 82.7362 12.9416 82.4527 12.4812C82.1686 12.0208 81.9929 11.5104 81.9235 10.9499L82.1933 10.7497V17.5957H79.5781ZM84.4971 12.171C84.9538 12.171 85.3481 12.0446 85.6802 11.7906C86.0123 11.5373 86.2717 11.167 86.4585 10.6797C86.6453 10.1924 86.7387 9.60249 86.7387 8.90814C86.7387 8.21378 86.6524 7.58074 86.4793 7.08656C86.3061 6.593 86.0499 6.22268 85.7113 5.97559C85.3721 5.7285 84.9745 5.60527 84.5179 5.60527C84.0334 5.60527 83.6183 5.73851 83.2726 6.00562C82.9269 6.27272 82.657 6.65305 82.4631 7.14661C82.2692 7.64079 82.1725 8.21441 82.1725 8.8681C82.1725 9.56183 82.2692 10.153 82.4631 10.6396C82.657 11.1269 82.9262 11.5041 83.2726 11.7706C83.6183 12.0377 84.0262 12.171 84.4971 12.171Z" fill="#1D1D1B"/>
<path d="M95.0401 14.0126C93.5042 14.0126 92.3004 13.5553 91.4287 12.6414C90.557 11.7275 90.1211 10.4832 90.1211 8.90813C90.1211 7.81405 90.3319 6.87324 90.7541 6.08568C91.1757 5.29812 91.7569 4.70135 92.4976 4.29412C93.2376 3.88752 94.0782 3.68359 95.0194 3.68359C96.5137 3.68359 97.6624 4.15087 98.4647 5.08481C99.2671 6.01875 99.6685 7.28672 99.6685 8.88811V9.36853H91.5325L92.7363 8.38768V9.20839C92.7363 10.0892 92.9406 10.7966 93.3485 11.3302C93.7565 11.8644 94.3617 12.1309 95.1646 12.1309C95.7458 12.1309 96.2232 11.9745 96.5968 11.6605C96.9703 11.3471 97.2467 10.9167 97.427 10.3694L99.6685 11.01C99.3501 11.9176 98.7968 12.6445 98.0081 13.1918C97.2194 13.7392 96.2296 14.0126 95.0401 14.0126ZM97.0741 8.0674C97.0462 7.21353 96.8562 6.56922 96.5034 6.13572C96.1505 5.70222 95.642 5.48516 94.9778 5.48516C94.3552 5.48516 93.8499 5.69221 93.4627 6.1057C93.0755 6.51918 92.8465 7.12658 92.7778 7.92728L92.1136 7.7271H98.2779L97.0741 8.0674Z" fill="#1D1D1B"/>
<path d="M105.108 14.0126C104.14 14.0126 103.299 13.7986 102.587 13.372C101.874 12.9448 101.324 12.3449 100.937 11.5704C100.549 10.7966 100.355 9.90212 100.355 8.88811C100.355 7.80717 100.57 6.87324 100.999 6.08568C101.428 5.29812 102.016 4.70135 102.763 4.29412C103.51 3.88752 104.354 3.68359 105.295 3.68359C106.458 3.68359 107.392 3.96071 108.097 4.51432C108.803 5.06792 109.273 5.83859 109.509 6.82632L107.101 7.40683C106.866 6.23268 106.25 5.6453 105.254 5.6453C104.797 5.6453 104.403 5.76227 104.071 5.9956C103.739 6.22955 103.482 6.58987 103.303 7.07654C103.122 7.56384 103.033 8.18062 103.033 8.92815C103.033 9.5956 103.119 10.163 103.292 10.6296C103.466 11.0969 103.718 11.4503 104.05 11.6905C104.382 11.9308 104.783 12.0509 105.254 12.0509C105.765 12.0509 106.194 11.8907 106.541 11.5704C106.886 11.2502 107.129 10.7898 107.267 10.1892L109.633 10.7697C109.37 11.7575 108.862 12.545 108.108 13.1318C107.353 13.7192 106.354 14.0126 105.108 14.0126Z" fill="#1D1D1B"/>
<path d="M110.547 2.64229V0H113.245V2.64229H110.547ZM110.588 13.792V3.98346H113.204V13.792H110.588Z" fill="#1D1D1B"/>
<path d="M117.768 14.0726C116.799 14.0726 116.011 13.8055 115.402 13.2719C114.792 12.7383 114.488 11.9908 114.488 11.03C114.488 9.88273 114.941 9.03511 115.848 8.48776C116.754 7.94041 117.94 7.66705 119.407 7.66705C120.058 7.66705 120.583 7.69395 120.985 7.74712L121.877 9.22841C121.116 9.17524 120.535 9.14834 120.134 9.14834C119.165 9.14834 118.414 9.2822 117.882 9.54869C117.349 9.81579 117.083 10.2631 117.083 10.8898C117.083 11.3171 117.224 11.6505 117.508 11.8907C117.792 12.1309 118.176 12.251 118.66 12.251C119.31 12.251 119.826 12.0377 120.206 11.6105C120.586 11.1832 120.777 10.5827 120.777 9.80891V7.20665C120.777 6.59299 120.632 6.12947 120.341 5.81544C120.051 5.50205 119.587 5.34504 118.951 5.34504C118.383 5.34504 117.937 5.47828 117.612 5.74538C117.286 6.01249 117.124 6.39282 117.124 6.88637V7.10657L114.613 6.72623C114.668 5.80544 115.083 5.06792 115.858 4.51432C116.633 3.96071 117.65 3.68359 118.909 3.68359C120.362 3.68359 121.458 4.01701 122.199 4.68446C122.939 5.35192 123.309 6.30587 123.309 7.54695V10.9499C123.309 11.3903 123.385 11.7037 123.538 11.8907C123.69 12.0778 123.904 12.171 124.181 12.171C124.402 12.171 124.624 12.1309 124.845 12.0509V13.6122C124.679 13.7192 124.464 13.8024 124.202 13.8624C123.939 13.9225 123.669 13.9525 123.392 13.9525C122.617 13.9525 122.029 13.7561 121.628 13.362C121.227 12.9685 121.026 12.358 121.026 11.5304V10.5295L121.234 10.7697C121.22 11.3972 121.074 11.9608 120.798 12.4612C120.521 12.9616 120.123 13.3551 119.604 13.6422C119.086 13.9294 118.473 14.0726 117.768 14.0726Z" fill="#1D1D1B"/>
<path d="M125.387 13.792V0H128.002V13.792H125.387Z" fill="#1D1D1B"/>
</g>
<defs>
<clipPath id="clip0_1294_1395">
<rect width="128" height="18" fill="white"/>
</clipPath>
</defs>
</svg>
